<svg id="baseline-shopping_cart-24px" xmlns="http://www.w3.org/2000/svg" width="51.383" height="51.383" viewBox="0 0 51.383 51.383">
  <path id="Caminho_388" data-name="Caminho 388" d="M13.846,36.255a4.276,4.276,0,1,0,3.03,1.253,4.282,4.282,0,0,0-3.03-1.253ZM1,2V6.282H5.282l7.71,16.25L10.1,27.778a4.14,4.14,0,0,0-.536,2.055,4.3,4.3,0,0,0,4.282,4.282H39.537V29.832H14.748a.53.53,0,0,1-.536-.536l.064-.257L16.2,25.55H32.151A4.261,4.261,0,0,0,35.9,23.345L43.563,9.45a2.092,2.092,0,0,0,.257-1.028,2.147,2.147,0,0,0-2.141-2.141H10.014L8,2ZM35.255,36.255a4.276,4.276,0,1,0,3.03,1.253A4.282,4.282,0,0,0,35.255,36.255Z" transform="translate(1.141 2.282)" fill="#fff"/>
  <path id="Caminho_389" data-name="Caminho 389" d="M0,0H51.383V51.383H0Z" fill="none"/>
</svg>
