<svg xmlns="http://www.w3.org/2000/svg" width="110.64" height="110.64" viewBox="0 0 110.64 110.64">
  <g id="Grupo_5254" data-name="Grupo 5254" transform="translate(-25 -188)">
    <g id="baseline-shopping_cart-24px" transform="translate(25 188)">
      <path id="Caminho_388" data-name="Caminho 388" d="M28.66,75.759a9.208,9.208,0,1,0,6.524,2.7,9.221,9.221,0,0,0-6.524-2.7ZM1,2v9.221h9.221l16.6,34.99L20.6,57.505a8.913,8.913,0,0,0-1.153,4.426,9.247,9.247,0,0,0,9.221,9.221H83.98V61.929H30.6a1.141,1.141,0,0,1-1.153-1.153l.137-.553,4.149-7.514h34.34a9.176,9.176,0,0,0,8.067-4.749l16.5-29.918a4.5,4.5,0,0,0,.553-2.214,4.624,4.624,0,0,0-4.609-4.609H20.409L16.074,2ZM74.759,75.759a9.208,9.208,0,1,0,6.524,2.7A9.221,9.221,0,0,0,74.759,75.759Z" transform="translate(3.609 7.221)" fill="#f87f2f"/>
      <path id="Caminho_389" data-name="Caminho 389" d="M0,0H110.64V110.64H0Z" fill="none"/>
    </g>
  </g>
</svg>
